<?xml version="1.0" standalone="no"?><!DOCTYPE svg PUBLIC "-//W3C//DTD SVG 1.1//EN" "http://www.w3.org/Graphics/SVG/1.1/DTD/svg11.dtd"><svg t="1621223105998" class="icon" viewBox="0 0 1024 1024" version="1.1" xmlns="http://www.w3.org/2000/svg" p-id="1537" xmlns:xlink="http://www.w3.org/1999/xlink" width="200" height="200"><defs><style type="text/css"></style></defs><path d="M505.36918 99.697311c241.059672 0 436.459016 195.399344 436.459017 436.459017S746.428852 972.615344 505.36918 972.615344 68.910164 777.216 68.910164 536.156328 264.309508 99.697311 505.36918 99.697311z m0 67.147541C301.408525 166.844852 136.057705 332.195672 136.057705 536.156328s165.35082 369.311475 369.311475 369.311475 369.311475-165.35082 369.311476-369.311475S709.329836 166.844852 505.36918 166.844852z" fill="#2F2F2F" p-id="1538"></path><path d="M616.867672 650.793967l-311.296 88.299017 88.299017-311.296 311.296-88.299017-88.299017 311.296zM448.24341 482.169705l-45.240656 159.47541 159.492197-45.223869 45.240656-159.492197-159.492197 45.240656z" fill="#35A8ED" p-id="1539"></path><path d="M505.36918 536.156328m-33.57377 0a33.57377 33.57377 0 1 0 67.147541 0 33.57377 33.57377 0 1 0-67.147541 0Z" fill="#35A8ED" p-id="1540"></path><path d="M842.701639 502.582557h33.573771a33.57377 33.57377 0 1 1 0 67.147541h-33.573771a33.57377 33.57377 0 1 1 0-67.147541zM129.980852 502.582557h33.573771a33.57377 33.57377 0 1 1 0 67.147541h-33.573771a33.57377 33.57377 0 1 1 0-67.147541zM471.79541 878.474492v33.57377a33.57377 33.57377 0 1 0 67.147541 0v-33.57377a33.57377 33.57377 0 1 0-67.147541 0zM471.79541 147.774951v33.57377a33.57377 33.57377 0 1 0 67.147541 0v-33.57377a33.57377 33.57377 0 1 0-67.147541 0z" fill="#2F2F2F" p-id="1541"></path></svg>